<svg width="984" height="557" viewBox="0 0 984 557" fill="none" xmlns="http://www.w3.org/2000/svg">
<g clip-path="url(#clip0_1_163)">
<path d="M819.238 551.297C810.246 543.698 804.783 531.695 806.216 520.009C807.648 508.323 816.521 497.581 828.029 495.099C839.538 492.618 852.657 499.487 856.152 510.729C858.076 489.055 860.293 466.472 871.817 448.014C882.251 431.301 900.323 419.342 919.91 417.203C939.496 415.063 960.118 423.144 972.333 438.603C984.549 454.062 987.539 476.537 978.984 494.285C972.682 507.36 961.071 517.091 948.905 525.007C909.593 550.371 862.444 560.686 816.133 554.053" fill="#F2F2F2"/>
<path d="M952.965 423.592C936.803 436.755 921.977 451.477 908.7 467.546C887.922 492.606 871.109 520.704 858.845 550.86C857.947 553.06 861.519 554.017 862.407 551.842C882.473 502.833 914.506 459.636 955.577 426.204C957.421 424.702 954.794 422.102 952.965 423.592Z" fill="white"/>
<path d="M483.5 7C483.499 7.26497 483.394 7.51885 483.206 7.70621C483.019 7.89357 482.765 7.99919 482.5 8H482.02C481.28 7.36 480.56 6.69 479.86 6H482.5C482.765 6.00081 483.019 6.10642 483.206 6.29378C483.394 6.48114 483.499 6.73503 483.5 7Z" fill="#F2F2F2"/>
<path d="M507.5 -30H256.5C254.644 -29.9979 252.865 -29.2598 251.553 -27.9475C250.24 -26.6352 249.502 -24.8559 249.5 -23V113C249.502 114.856 250.24 116.635 251.553 117.947C252.865 119.26 254.644 119.998 256.5 120H507.5C509.356 119.998 511.135 119.26 512.447 117.947C513.76 116.635 514.498 114.856 514.5 113V-23C514.498 -24.8559 513.76 -26.6352 512.447 -27.9475C511.135 -29.2598 509.356 -29.9979 507.5 -30ZM512.5 113C512.499 114.326 511.973 115.597 511.035 116.535C510.097 117.472 508.826 117.999 507.5 118H256.5C255.174 117.999 253.903 117.472 252.965 116.535C252.027 115.597 251.501 114.326 251.5 113V-23C251.501 -24.3259 252.027 -25.5974 252.965 -26.535C253.903 -27.4725 255.174 -27.9995 256.5 -28H507.5C508.826 -27.9995 510.097 -27.4725 511.035 -26.535C511.973 -25.5974 512.499 -24.3259 512.5 -23V113Z" fill="#3F3D56"/>
<path d="M355.22 29.16C352.23 21.98 347.58 16 340.82 12.04C333.73 7.87001 325.62 4.40006 317.46 3.15006C309.291 1.94244 300.963 2.40855 292.98 4.52006C291.94 4.79006 290.86 5.08006 289.78 5.40006C286.972 6.12488 284.303 7.30738 281.88 8.90006C281.8 8.95006 281.72 9.00006 281.64 9.06006C278.54 11.3401 276.42 15.1001 274.68 18.4701C273.03 21.7001 271.99 25.2601 272.89 28.8701C273.866 32.163 275.897 35.0441 278.67 37.0701C280.6 38.5901 283.13 40.5101 285.71 40.5501C286.32 40.5636 286.927 40.4619 287.5 40.2501C287.679 40.187 287.85 40.1031 288.01 40.0001C289.05 40.3122 290.125 40.4903 291.21 40.5301C295.6 40.7301 299.99 38.8701 304.5 37.3501C305.557 36.9812 306.64 36.6904 307.74 36.4801C309.709 36.0514 311.754 36.1201 313.69 36.6801C314.047 36.7811 314.398 36.9046 314.74 37.0501C318.081 38.6167 320.9 41.1129 322.86 44.2401C324.77 47.0801 326.03 50.3101 328.13 53.0401C329.172 54.447 330.499 55.6191 332.024 56.4804C333.548 57.3418 335.237 57.8731 336.98 58.0401C342.22 58.6201 348.8 58.3401 353.31 55.1901C354.534 54.354 355.584 53.2875 356.4 52.0501C356.48 51.9301 356.56 51.8101 356.63 51.6901C360.78 44.86 358.06 35.95 355.22 29.16ZM286.13 18.67C287.13 18.78 288.14 18.9 289.14 19.01C287.227 19.3516 285.438 20.1896 283.95 21.44C283.385 21.9199 282.86 22.445 282.38 23.01C282.4 22.97 282.4 22.92 282.42 22.88C282.713 21.9597 283.194 21.1102 283.833 20.3855C284.472 19.6608 285.254 19.0766 286.13 18.67ZM346.42 44.07C346.6 44.03 346.79 44 346.97 43.97C347.258 43.9251 347.531 43.8157 347.77 43.65C347.77 43.68 347.78 43.72 347.78 43.75C347.782 43.8838 347.792 44.0175 347.81 44.15C347.76 44.23 347.72 44.31 347.67 44.39C347.25 44.2801 346.84 44.17 346.42 44.07ZM343.63 19.75C345.844 21.841 347.729 24.255 349.22 26.91C347.455 24.7535 345.504 22.7558 343.39 20.94C343.549 20.5635 343.631 20.1587 343.63 19.75ZM341.2 48.12C341.114 48.2664 341.05 48.4247 341.01 48.59C340.74 48.6 340.46 48.61 340.18 48.61H340.04C340.03 48.57 340.01 48.52 340 48.48C339.94 48.3 339.89 48.12 339.83 47.94C340.29 48 340.74 48.06 341.2 48.12ZM319.82 25.69C319.847 25.4878 319.853 25.2835 319.84 25.08C320.06 25.2461 320.318 25.3559 320.59 25.4C320.62 25.41 320.66 25.41 320.69 25.42C320.88 25.53 321.06 25.63 321.25 25.74L321.19 25.83C320.73 25.7801 320.27 25.74 319.82 25.69ZM335.66 20.71H335.63C334.97 20.3 334.31 19.89 333.64 19.5C334.32 19.88 335 20.29 335.66 20.71ZM331.98 39.45C331.877 39.5535 331.789 39.6714 331.72 39.8C331.67 39.73 331.63 39.67 331.58 39.6C331.706 39.532 331.84 39.4815 331.98 39.45ZM323.02 19.86C322.798 19.6835 322.552 19.5388 322.29 19.43C321.002 18.9331 319.682 18.5222 318.34 18.2C318.14 18.01 317.94 17.82 317.75 17.62C318.885 17.8397 320.007 18.1235 321.11 18.47C322.523 18.9231 323.908 19.4573 325.26 20.07C324.51 19.99 323.77 19.92 323.02 19.86ZM315.4 7.32001C318.277 7.70412 321.113 8.35355 323.87 9.26002C323.59 9.19002 323.31 9.13 323.03 9.06C320.38 8.46 317.68 7.82001 314.96 7.27001C315.11 7.29001 315.25 7.29999 315.4 7.32001Z" fill="#CCCCCC"/>
<path d="M326.173 84.9766C323.65 84.9062 320.511 84.8179 318.094 83.0524C317.374 82.5049 316.783 81.8065 316.361 81.0063C315.939 80.206 315.698 79.3233 315.653 78.4199C315.61 77.7779 315.715 77.1345 315.961 76.54C316.207 75.9454 316.588 75.4159 317.072 74.9927C317.793 74.4549 318.636 74.106 319.526 73.9779C320.416 73.8498 321.324 73.9466 322.167 74.2593L320.108 59.2116L321.619 59.0045L324.04 76.6949L322.778 76.1157C321.314 75.4445 319.306 75.1033 318.057 76.1578C317.751 76.4335 317.512 76.7761 317.359 77.159C317.207 77.542 317.145 77.955 317.178 78.3658C317.215 79.0383 317.396 79.6949 317.71 80.291C318.023 80.8871 318.461 81.4086 318.994 81.8202C320.875 83.1946 323.377 83.3719 326.215 83.4516L326.173 84.9766Z" fill="#3F3D56"/>
<path d="M312.633 60.5093H304.416V62.035H312.633V60.5093Z" fill="#3F3D56"/>
<path d="M338.569 60.5093H330.352V62.035H338.569V60.5093Z" fill="#3F3D56"/>
<path d="M290.14 39.4417C283.523 38.6872 278.398 32.3472 277.835 25.9144C277.166 18.2616 281.622 10.9932 287.737 6.69873C294.131 2.20773 302.098 0.332307 309.806 -0.080533C324.842 -0.828795 339.62 4.04197 351.264 13.5846C357.04 18.3816 362.434 24.4922 364.478 31.873C366.254 38.283 364.809 45.5446 359.654 50.034C358.378 51.1341 356.889 51.958 355.279 52.4536C353.67 52.9492 351.975 53.1058 350.301 52.9134C346.301 52.4981 342.61 50.3947 339.416 48.0718C333.201 43.5532 328.099 37.2585 320.527 34.8972C314.976 33.1658 307.771 34.6898 304.379 39.7103C303.609 40.8595 303.11 42.1686 302.92 43.5387C302.85 43.8309 302.893 44.1388 303.042 44.4002C303.19 44.6615 303.432 44.8567 303.719 44.9462C304.011 45.025 304.323 44.9853 304.587 44.8357C304.85 44.6861 305.044 44.4387 305.126 44.1471C306.017 37.8236 313.792 35.464 319.248 36.9081C327.204 39.0137 332.544 46.1126 339.071 50.6228C342.449 53.142 346.43 54.7307 350.614 55.2303C354.243 55.5149 357.844 54.4088 360.686 52.1362C366.262 47.7332 368.395 40.1602 367.162 33.3419C365.734 25.4463 360.42 18.6793 354.589 13.4402C342.768 2.93131 327.422 -2.73789 311.608 -2.4377C303.542 -2.25244 295.126 -0.587336 288.177 3.67581C281.437 7.81103 276.227 14.7293 275.546 22.771C274.947 29.8493 278.745 37.2528 285.264 40.3538C286.801 41.0819 288.449 41.5471 290.14 41.7302C291.601 41.8968 291.589 39.6069 290.14 39.4417Z" fill="#3F3D56"/>
<path d="M483.5 7C483.499 7.26497 483.394 7.51885 483.206 7.70621C483.019 7.89357 482.765 7.99919 482.5 8H400.5C400.235 8 399.98 7.89463 399.793 7.70709C399.605 7.51956 399.5 7.26522 399.5 7C399.5 6.73478 399.605 6.48043 399.793 6.29289C399.98 6.10536 400.235 6 400.5 6H482.5C482.765 6.00081 483.019 6.10642 483.206 6.29378C483.394 6.48114 483.499 6.73503 483.5 7Z" fill="#3F3D56"/>
<path d="M482.5 23H400.5C400.235 23 399.98 22.8946 399.793 22.7071C399.605 22.5196 399.5 22.2652 399.5 22C399.5 21.7348 399.605 21.4804 399.793 21.2929C399.98 21.1054 400.235 21 400.5 21H482.5C482.765 21 483.02 21.1054 483.207 21.2929C483.395 21.4804 483.5 21.7348 483.5 22C483.5 22.2652 483.395 22.5196 483.207 22.7071C483.02 22.8946 482.765 23 482.5 23Z" fill="#3F3D56"/>
<path d="M482.5 38H400.5C400.235 38 399.98 37.8946 399.793 37.7071C399.605 37.5196 399.5 37.2652 399.5 37C399.5 36.7348 399.605 36.4804 399.793 36.2929C399.98 36.1054 400.235 36 400.5 36H482.5C482.765 36 483.02 36.1054 483.207 36.2929C483.395 36.4804 483.5 36.7348 483.5 37C483.5 37.2652 483.395 37.5196 483.207 37.7071C483.02 37.8946 482.765 38 482.5 38Z" fill="#3F3D56"/>
<path d="M482.5 53H400.5C400.235 53 399.98 52.8946 399.793 52.7071C399.605 52.5196 399.5 52.2652 399.5 52C399.5 51.7348 399.605 51.4804 399.793 51.2929C399.98 51.1054 400.235 51 400.5 51H482.5C482.765 51 483.02 51.1054 483.207 51.2929C483.395 51.4804 483.5 51.7348 483.5 52C483.5 52.2652 483.395 52.5196 483.207 52.7071C483.02 52.8946 482.765 53 482.5 53Z" fill="#3F3D56"/>
<path d="M482.5 68H400.5C400.235 68 399.98 67.8946 399.793 67.7071C399.605 67.5196 399.5 67.2652 399.5 67C399.5 66.7348 399.605 66.4804 399.793 66.2929C399.98 66.1054 400.235 66 400.5 66H482.5C482.765 66 483.02 66.1054 483.207 66.2929C483.395 66.4804 483.5 66.7348 483.5 67C483.5 67.2652 483.395 67.5196 483.207 67.7071C483.02 67.8946 482.765 68 482.5 68Z" fill="#3F3D56"/>
<path d="M482.5 83H400.5C400.235 83 399.98 82.8947 399.793 82.7071C399.605 82.5196 399.5 82.2652 399.5 82C399.5 81.7348 399.605 81.4804 399.793 81.2929C399.98 81.1054 400.235 81 400.5 81H482.5C482.765 81 483.02 81.1054 483.207 81.2929C483.395 81.4804 483.5 81.7348 483.5 82C483.5 82.2652 483.395 82.5196 483.207 82.7071C483.02 82.8947 482.765 83 482.5 83Z" fill="#3F3D56"/>
<path d="M186.131 216.555C183.344 216.563 180.653 215.536 178.58 213.674C177.42 212.639 176.483 211.378 175.828 209.968C175.173 208.558 174.812 207.029 174.769 205.475L130.393 173.201C129.054 172.227 127.942 170.975 127.134 169.53C126.325 168.085 125.839 166.483 125.71 164.832C125.58 163.182 125.81 161.523 126.383 159.969C126.957 158.416 127.86 157.006 129.031 155.835L162.069 122.797C163.43 121.435 165.164 120.508 167.053 120.133C168.941 119.757 170.898 119.95 172.677 120.687C174.456 121.423 175.976 122.671 177.046 124.272C178.115 125.873 178.686 127.755 178.686 129.68C178.416 134.731 176.426 139.537 173.045 143.299L150.613 165.731L185.821 193.796C185.93 193.789 186.038 193.783 186.148 193.783C189.055 193.783 191.853 194.895 193.966 196.89C196.08 198.886 197.351 201.614 197.517 204.517C197.684 207.419 196.734 210.275 194.863 212.499C192.992 214.724 190.341 216.149 187.453 216.481C187.014 216.53 186.572 216.555 186.131 216.555Z" fill="#FFB8B8"/>
<path d="M238.863 407.183L250.77 402.738L239.291 354.695L221.717 361.256L238.863 407.183Z" fill="#FFB8B8"/>
<path d="M277.861 405.222L240.439 419.192L235.041 404.734L258.517 395.97C262.216 394.589 266.312 394.734 269.904 396.373C273.495 398.012 276.289 401.011 277.67 404.71L277.861 405.222Z" fill="#2F2E41"/>
<path d="M131.741 409.363H144.451L150.497 360.339L131.739 360.34L131.741 409.363Z" fill="#FFB8B8"/>
<path d="M168.963 421.164L129.018 421.165L129.017 405.732L154.075 405.731C158.024 405.731 161.81 407.299 164.602 410.091C167.394 412.882 168.963 416.669 168.963 420.617L168.963 421.164Z" fill="#2F2E41"/>
<path d="M145.459 395.986C145.316 395.986 145.173 395.979 145.03 395.965L131.557 394.682C130.464 394.578 129.447 394.078 128.697 393.276C127.947 392.475 127.516 391.426 127.485 390.329C126.708 361.153 124.749 213.9 162.642 180.156C163.299 179.578 164.114 179.21 164.981 179.099C171.845 178.158 195.001 175.85 204.803 185.709C205.425 186.33 205.856 187.116 206.044 187.974L248.952 386.362C249.084 386.972 249.088 387.603 248.963 388.215C248.837 388.827 248.586 389.406 248.225 389.916C247.864 390.425 247.401 390.854 246.865 391.174C246.329 391.495 245.732 391.701 245.112 391.778L228.661 393.834C228.067 393.909 227.464 393.865 226.887 393.704C226.31 393.542 225.772 393.267 225.303 392.895C224.834 392.523 224.444 392.06 224.156 391.535C223.869 391.01 223.689 390.433 223.627 389.837C221.99 373.89 212.154 292.887 179.192 264.174C178.746 263.782 178.208 263.508 177.629 263.378C177.049 263.247 176.446 263.265 175.875 263.428C175.316 263.583 174.805 263.879 174.392 264.286C173.978 264.693 173.675 265.199 173.511 265.755C167.409 285.722 147.675 353.776 149.943 391.217C149.981 391.829 149.893 392.442 149.685 393.019C149.477 393.596 149.152 394.124 148.732 394.571C148.312 395.018 147.805 395.374 147.242 395.617C146.679 395.861 146.072 395.986 145.459 395.986Z" fill="#2F2E41"/>
<path d="M171.388 98.9818C184.953 98.9818 195.949 87.9855 195.949 74.4208C195.949 60.8561 184.953 49.8597 171.388 49.8597C157.823 49.8597 146.827 60.8561 146.827 74.4208C146.827 87.9855 157.823 98.9818 171.388 98.9818Z" fill="#FFB8B8"/>
<path d="M147.272 120.677C147.272 120.677 170.079 93.7223 188.74 115.493C200.747 129.501 207.097 147.484 206.55 165.925L205.846 189.618L162.822 182.879L147.272 120.677Z" fill="#23FF1F"/>
<path d="M207.208 172.906C207.029 172.906 206.85 172.902 206.671 172.895C204.833 172.819 203.033 172.345 201.396 171.505C199.759 170.666 198.324 169.481 197.189 168.033L169.274 132.44C168.086 130.925 167.373 129.092 167.227 127.172C167.081 125.252 167.507 123.332 168.452 121.655C169.397 119.977 170.818 118.618 172.535 117.748C174.253 116.878 176.19 116.537 178.101 116.768L182.032 117.243C184.541 117.684 186.825 118.97 188.502 120.888L210.523 148.965L242.61 117.379C242.616 117.271 242.624 117.163 242.637 117.053C242.905 114.83 243.823 112.736 245.275 111.032C246.727 109.327 248.65 108.089 250.802 107.472C252.954 106.855 255.241 106.886 257.375 107.561C259.51 108.237 261.398 109.526 262.804 111.269C264.21 113.012 265.07 115.131 265.278 117.36C265.486 119.59 265.031 121.831 263.972 123.803C262.913 125.776 261.296 127.393 259.322 128.451C257.349 129.509 255.108 129.962 252.879 129.753L216.526 168.845C215.336 170.127 213.894 171.149 212.291 171.848C210.688 172.547 208.957 172.907 207.208 172.906Z" fill="#FFB8B8"/>
<path d="M175.369 78.6699L185.922 66.2382C188.641 63.0344 191.486 59.5449 191.87 55.3602C192.292 50.7729 189.502 46.314 185.687 43.7314C181.873 41.1488 177.189 40.1769 172.596 39.8203C164.078 39.1588 155.114 40.5665 148.112 45.4617C141.109 50.3568 136.528 59.1943 138.235 67.5658C139.58 74.1575 144.534 80.4719 142.608 86.9178C140.501 93.9708 131.861 96.1347 124.807 98.238C112.967 101.768 101.661 108.718 95.4558 119.402C89.2506 130.087 89.2777 144.819 97.5494 153.997C102.906 159.94 110.984 162.946 118.972 163.398C126.959 163.85 134.91 161.969 142.485 159.396C149.462 157.026 156.363 153.978 161.856 149.067C167.348 144.155 171.305 137.127 171.134 129.761C170.97 122.741 167.21 116.346 165.665 109.497C164.447 103.761 164.766 97.8049 166.592 92.2325C168.418 86.6601 171.684 81.6696 176.061 77.7667" fill="#2F2E41"/>
<path d="M687.5 327H436.5C434.644 326.998 432.865 326.26 431.553 324.947C430.24 323.635 429.502 321.856 429.5 320V184C429.502 182.144 430.24 180.365 431.553 179.053C432.865 177.74 434.644 177.002 436.5 177H687.5C689.356 177.002 691.135 177.74 692.447 179.053C693.76 180.365 694.498 182.144 694.5 184V320C694.498 321.856 693.76 323.635 692.447 324.947C691.135 326.26 689.356 326.998 687.5 327ZM436.5 179C435.174 179.002 433.904 179.529 432.966 180.466C432.029 181.404 431.502 182.674 431.5 184V320C431.502 321.326 432.029 322.596 432.966 323.534C433.904 324.471 435.174 324.998 436.5 325H687.5C688.826 324.998 690.096 324.471 691.034 323.534C691.971 322.596 692.498 321.326 692.5 320V184C692.498 182.674 691.971 181.404 691.034 180.466C690.096 179.529 688.826 179.002 687.5 179H436.5Z" fill="#3F3D56"/>
<path d="M535.224 236.157C532.229 228.985 527.575 223.002 520.821 219.037C513.725 214.871 505.625 211.402 497.464 210.151C489.294 208.944 480.965 209.41 472.981 211.521C469.132 212.518 464.89 213.676 461.644 216.062C458.541 218.344 456.415 222.097 454.685 225.468C453.027 228.698 451.993 232.255 452.891 235.873C453.866 239.167 455.899 242.048 458.674 244.073C461.037 245.939 464.341 248.409 467.5 247.253C467.68 247.187 467.851 247.101 468.011 246.995C473.468 248.656 478.893 246.241 484.495 244.35C487.9 243.201 491.323 242.62 494.742 244.054C498.082 245.618 500.902 248.112 502.862 251.236C504.774 254.082 506.033 257.314 508.13 260.042C509.173 261.447 510.5 262.617 512.023 263.478C513.547 264.338 515.234 264.869 516.975 265.037C523.744 265.795 532.728 265.097 536.627 258.688C540.783 251.859 538.064 242.954 535.224 236.157ZM466.131 225.668C467.135 225.782 468.139 225.896 469.143 226.01C467.23 226.354 465.441 227.193 463.952 228.444C463.386 228.921 462.861 229.446 462.383 230.011C462.397 229.966 462.405 229.922 462.42 229.876C462.715 228.956 463.197 228.108 463.836 227.384C464.474 226.66 465.256 226.076 466.131 225.668ZM499.835 232.08C500.058 232.247 500.318 232.358 500.593 232.403C500.625 232.408 500.657 232.414 500.689 232.419C500.875 232.526 501.063 232.632 501.25 232.738C501.229 232.767 501.213 232.8 501.193 232.83C500.734 232.783 500.275 232.737 499.816 232.691C499.848 232.489 499.855 232.283 499.835 232.08ZM511.985 246.446C511.883 246.553 511.794 246.672 511.718 246.798C511.673 246.733 511.628 246.668 511.583 246.602C511.707 246.529 511.843 246.476 511.985 246.446ZM519.831 254.938C520.286 254.998 520.741 255.058 521.196 255.118C521.111 255.266 521.049 255.425 521.011 255.591C520.689 255.602 520.363 255.607 520.038 255.608L519.831 254.938ZM526.421 251.066L526.97 250.972C527.258 250.925 527.532 250.816 527.773 250.653C527.774 250.685 527.777 250.717 527.778 250.749C527.782 250.859 527.792 250.996 527.806 251.152C527.761 251.23 527.716 251.309 527.668 251.386C527.252 251.279 526.837 251.173 526.421 251.066ZM503.02 226.865C502.801 226.683 502.554 226.538 502.289 226.435C501 225.937 499.68 225.524 498.338 225.199C498.137 225.01 497.94 224.816 497.749 224.617C498.882 224.841 500.003 225.126 501.106 225.472C502.519 225.925 503.906 226.458 505.26 227.069C504.512 226.986 503.766 226.918 503.02 226.865ZM515.626 227.709C514.968 227.298 514.306 226.895 513.64 226.499C514.323 226.884 514.996 227.287 515.659 227.709L515.626 227.709ZM529.218 233.913C527.453 231.755 525.503 229.757 523.387 227.942C523.551 227.566 523.633 227.161 523.629 226.752C525.845 228.841 527.729 231.256 529.218 233.913ZM503.869 216.255C503.59 216.191 503.311 216.126 503.032 216.063C500.382 215.465 497.683 214.82 494.959 214.274C495.105 214.291 495.251 214.305 495.397 214.324C498.275 214.705 501.111 215.351 503.869 216.255Z" fill="#31FB45"/>
<path d="M506.173 291.977C503.65 291.906 500.511 291.818 498.094 290.052C497.374 289.505 496.783 288.807 496.361 288.006C495.939 287.206 495.698 286.323 495.653 285.42C495.61 284.778 495.715 284.135 495.961 283.54C496.207 282.945 496.588 282.416 497.072 281.993C497.793 281.455 498.636 281.106 499.526 280.978C500.416 280.85 501.324 280.947 502.167 281.259L500.108 266.212L501.619 266.005L504.04 283.695L502.778 283.116C501.314 282.445 499.306 282.103 498.057 283.158C497.751 283.433 497.512 283.776 497.36 284.159C497.207 284.542 497.145 284.955 497.178 285.366C497.215 286.038 497.396 286.695 497.71 287.291C498.023 287.887 498.461 288.409 498.994 288.82C500.875 290.195 503.377 290.372 506.215 290.452L506.173 291.977Z" fill="#3F3D56"/>
<path d="M492.633 267.509H484.416V269.035H492.633V267.509Z" fill="#3F3D56"/>
<path d="M518.569 267.509H510.352V269.035H518.569V267.509Z" fill="#3F3D56"/>
<path d="M470.14 246.442C463.523 245.687 458.398 239.347 457.835 232.914C457.166 225.262 461.622 217.993 467.737 213.699C474.131 209.208 482.098 207.332 489.806 206.919C504.842 206.171 519.619 211.042 531.264 220.585C537.04 225.382 542.434 231.492 544.478 238.873C546.254 245.283 544.809 252.545 539.654 257.034C538.378 258.134 536.889 258.958 535.279 259.454C533.67 259.949 531.975 260.106 530.301 259.913C526.301 259.498 522.61 257.395 519.415 255.072C513.201 250.553 508.099 244.258 500.527 241.897C494.976 240.166 487.771 241.69 484.379 246.71C483.609 247.86 483.11 249.169 482.92 250.539C482.85 250.831 482.893 251.139 483.041 251.4C483.19 251.661 483.432 251.857 483.719 251.946C484.011 252.025 484.323 251.985 484.587 251.836C484.85 251.686 485.044 251.439 485.126 251.147C486.017 244.824 493.792 242.464 499.248 243.908C507.204 246.014 512.544 253.113 519.071 257.623C522.449 260.142 526.43 261.731 530.614 262.23C534.243 262.515 537.844 261.409 540.686 259.136C546.262 254.733 548.395 247.16 547.162 240.342C545.734 232.446 540.42 225.679 534.589 220.44C522.768 209.931 507.422 204.262 491.608 204.562C483.542 204.748 475.126 206.413 468.177 210.676C461.437 214.811 456.227 221.729 455.546 229.771C454.947 236.849 458.745 244.253 465.264 247.354C466.801 248.082 468.449 248.547 470.14 248.73C471.601 248.897 471.589 246.607 470.14 246.442Z" fill="#3F3D56"/>
<path d="M662.5 215H580.5C580.235 215 579.98 214.895 579.793 214.707C579.605 214.52 579.5 214.265 579.5 214C579.5 213.735 579.605 213.48 579.793 213.293C579.98 213.105 580.235 213 580.5 213H662.5C662.765 213 663.02 213.105 663.207 213.293C663.395 213.48 663.5 213.735 663.5 214C663.5 214.265 663.395 214.52 663.207 214.707C663.02 214.895 662.765 215 662.5 215Z" fill="#3F3D56"/>
<path d="M662.5 230H580.5C580.235 230 579.98 229.895 579.793 229.707C579.605 229.52 579.5 229.265 579.5 229C579.5 228.735 579.605 228.48 579.793 228.293C579.98 228.105 580.235 228 580.5 228H662.5C662.765 228 663.02 228.105 663.207 228.293C663.395 228.48 663.5 228.735 663.5 229C663.5 229.265 663.395 229.52 663.207 229.707C663.02 229.895 662.765 230 662.5 230Z" fill="#3F3D56"/>
<path d="M662.5 245H580.5C580.235 245 579.98 244.895 579.793 244.707C579.605 244.52 579.5 244.265 579.5 244C579.5 243.735 579.605 243.48 579.793 243.293C579.98 243.105 580.235 243 580.5 243H662.5C662.765 243 663.02 243.105 663.207 243.293C663.395 243.48 663.5 243.735 663.5 244C663.5 244.265 663.395 244.52 663.207 244.707C663.02 244.895 662.765 245 662.5 245Z" fill="#3F3D56"/>
<path d="M662.5 260H580.5C580.235 260 579.98 259.895 579.793 259.707C579.605 259.52 579.5 259.265 579.5 259C579.5 258.735 579.605 258.48 579.793 258.293C579.98 258.105 580.235 258 580.5 258H662.5C662.765 258 663.02 258.105 663.207 258.293C663.395 258.48 663.5 258.735 663.5 259C663.5 259.265 663.395 259.52 663.207 259.707C663.02 259.895 662.765 260 662.5 260Z" fill="#3F3D56"/>
<path d="M662.5 275H580.5C580.235 275 579.98 274.895 579.793 274.707C579.605 274.52 579.5 274.265 579.5 274C579.5 273.735 579.605 273.48 579.793 273.293C579.98 273.105 580.235 273 580.5 273H662.5C662.765 273 663.02 273.105 663.207 273.293C663.395 273.48 663.5 273.735 663.5 274C663.5 274.265 663.395 274.52 663.207 274.707C663.02 274.895 662.765 275 662.5 275Z" fill="#3F3D56"/>
<path d="M662.5 290H580.5C580.235 290 579.98 289.895 579.793 289.707C579.605 289.52 579.5 289.265 579.5 289C579.5 288.735 579.605 288.48 579.793 288.293C579.98 288.105 580.235 288 580.5 288H662.5C662.765 288 663.02 288.105 663.207 288.293C663.395 288.48 663.5 288.735 663.5 289C663.5 289.265 663.395 289.52 663.207 289.707C663.02 289.895 662.765 290 662.5 290Z" fill="#3F3D56"/>
<path d="M815.686 181.676C830.177 181.676 841.924 169.928 841.924 155.437C841.924 140.945 830.177 129.198 815.686 129.198C801.194 129.198 789.447 140.945 789.447 155.437C789.447 169.928 801.194 181.676 815.686 181.676Z" fill="#FFB8B8"/>
<path d="M737.487 542.021L725.009 538.044L734.412 488.019L752.829 493.889L737.487 542.021Z" fill="#FFB8B8"/>
<path d="M716.666 531.452L741.298 539.303L736.469 554.456L697.25 541.955L697.43 541.389C698.041 539.473 699.023 537.697 700.32 536.161C701.617 534.625 703.204 533.359 704.99 532.436C706.776 531.514 708.727 530.952 710.73 530.783C712.733 530.614 714.75 530.841 716.666 531.452Z" fill="#2F2E41"/>
<path d="M828.277 541.762H815.179L808.946 491.244H828.277V541.762Z" fill="#FFB8B8"/>
<path d="M805.229 538.02H831.083V553.924H789.92V553.329C789.92 551.319 790.316 549.328 791.086 547.471C791.855 545.613 792.983 543.926 794.404 542.504C795.826 541.082 797.514 539.955 799.371 539.185C801.228 538.416 803.219 538.02 805.229 538.02Z" fill="#2F2E41"/>
<path d="M827.893 525.368L823.473 524.708C810.066 522.711 809.263 522.591 807.135 521.657C806.048 521.179 805.971 513.963 806.624 473.401C807.103 443.626 807.699 406.571 806.541 386.678C806.494 385.893 806.183 385.147 805.659 384.561C805.136 383.974 804.43 383.581 803.655 383.444C802.881 383.308 802.083 383.436 801.391 383.809C800.698 384.181 800.151 384.776 799.838 385.498C789.863 408.535 773.126 460.088 762.051 494.202C758.199 506.068 755.156 515.441 753.231 521.059C752.859 522.122 752.105 523.007 751.115 523.543C750.125 524.079 748.97 524.227 747.877 523.957C738.763 521.679 739.373 520.71 726.392 517.353C725.269 517.066 724.3 516.356 723.688 515.372C723.077 514.388 722.869 513.205 723.11 512.071C725.458 500.999 768.425 321.471 771.713 304.405C771.825 303.821 772.051 303.265 772.378 302.769C772.706 302.272 773.128 301.846 773.621 301.514C774.115 301.181 774.669 300.95 775.252 300.834C775.835 300.717 776.435 300.717 777.019 300.834C786.692 302.783 792.578 304.851 802.137 306.85C812.453 309.008 823.12 311.239 833.524 313.322C834.559 313.53 835.488 314.099 836.143 314.927C838.718 318.179 842.535 320.004 846.577 321.936C849.302 323.239 843.127 323.121 845.5 325C855.11 332.607 841.291 487.088 832.94 521.978C832.673 523.07 832.007 524.023 831.073 524.65C830.14 525.277 829.006 525.533 827.893 525.368Z" fill="#2F2E41"/>
<path d="M819.984 350.28C819.686 348.924 819.689 347.519 819.992 346.164C820.295 344.809 820.892 343.537 821.74 342.438C822.589 341.339 823.668 340.439 824.901 339.802C826.135 339.164 827.493 338.805 828.88 338.75L850.088 314.812L863.258 330.722L838.869 348.54C838.807 350.876 837.891 353.11 836.293 354.816C834.695 356.522 832.527 357.583 830.199 357.798C827.872 358.012 825.546 357.365 823.663 355.98C821.78 354.594 820.471 352.566 819.984 350.28Z" fill="#FFB8B8"/>
<path d="M826.869 178.396C825.338 171.896 833.082 157.91 831.55 151.41C830.512 147.008 820.161 150 817.746 146.177C815.33 142.353 811.284 139.256 806.761 139.205C801.563 139.147 796.449 143.003 791.525 141.336C786.546 139.651 784.955 132.833 787.156 128.06C789.357 123.287 794.098 120.246 798.783 117.862C806.761 113.804 816.049 110.84 824.588 113.525C829.749 115.149 834.065 118.666 838.241 122.106C842.048 125.241 845.919 128.448 848.58 132.601C853.794 140.736 853.479 151.696 849.024 160.27C844.568 168.843 836.45 175.135 827.505 178.787" fill="#2F2E41"/>
<path d="M762.441 329.663C765.273 324.932 769.573 302.766 774.875 265.56C778.485 240.161 781.63 214.354 783.191 201.171C783.312 200.104 783.702 199.085 784.325 198.21C784.947 197.336 785.782 196.633 786.75 196.169C787.763 195.681 788.77 195.218 789.77 194.782C802.693 189.161 815.79 187.298 828.694 189.246C841.579 191.225 853.665 196.732 863.613 205.157L863.731 205.268L863.761 205.426C863.817 205.719 869.237 234.924 858.136 254.655C847.188 274.124 847.06 325.682 847.06 326.2V326.863L846.423 326.681C829.391 321.814 763.598 330.329 762.935 330.416L761.91 330.549L762.441 329.663Z" fill="#CCCCCC"/>
<path d="M832.332 333.619L865.789 289.009L848.536 252.04L849.789 208.194L863.933 205.581L864.083 205.656C870.954 209.674 876.28 215.88 879.211 223.28C882.353 231.136 888.87 257.861 893.784 278.898C895.067 284.313 894.939 289.966 893.412 295.316C891.884 300.667 889.009 305.535 885.061 309.456L844.018 350.499L832.332 333.619Z" fill="#CCCCCC"/>
<path d="M691.878 245.211C692.678 244.076 693.717 243.13 694.922 242.44C696.127 241.75 697.468 241.333 698.852 241.217C700.236 241.102 701.628 241.291 702.93 241.772C704.233 242.253 705.414 243.013 706.391 244L738.368 243.508L735.507 263.962L705.902 257.977C704.136 259.508 701.869 260.338 699.531 260.31C697.194 260.281 694.948 259.396 693.22 257.823C691.491 256.249 690.4 254.096 690.152 251.772C689.905 249.447 690.519 247.113 691.878 245.211Z" fill="#FFB8B8"/>
<path d="M707.929 263.103L712.503 243.087L768.003 237.691L783.218 201.1L783.663 200.019L789.643 194.862L789.77 194.782C802.693 189.161 815.789 187.299 828.695 189.246L829.148 189.314L829.119 189.771C828.828 194.454 827.626 199.035 825.58 203.257C819.839 215.166 784.516 265.786 784.16 266.296L784.002 266.521L707.929 263.103Z" fill="#CCCCCC"/>
<path d="M974 556H593C592.735 556 592.48 555.895 592.293 555.707C592.105 555.52 592 555.265 592 555C592 554.735 592.105 554.48 592.293 554.293C592.48 554.105 592.735 554 593 554H974C974.265 554 974.52 554.105 974.707 554.293C974.895 554.48 975 554.735 975 555C975 555.265 974.895 555.52 974.707 555.707C974.52 555.895 974.265 556 974 556Z" fill="#3F3D56"/>
<path d="M382 421H1C0.734784 421 0.480436 420.895 0.2929 420.707C0.105364 420.52 0 420.265 0 420C0 419.735 0.105364 419.48 0.2929 419.293C0.480436 419.105 0.734784 419 1 419H382C382.265 419 382.52 419.105 382.707 419.293C382.895 419.48 383 419.735 383 420C383 420.265 382.895 420.52 382.707 420.707C382.52 420.895 382.265 421 382 421Z" fill="#3F3D56"/>
<g clip-path="url(#clip1_1_163)">
<path d="M725.364 510.815C725.065 510.815 724.778 508.161 724.566 503.437C724.355 498.714 724.236 492.307 724.236 485.627C724.236 478.947 724.355 472.541 724.566 467.817C724.778 463.094 725.065 460.44 725.364 460.44H735.636C735.935 460.44 736.222 463.094 736.434 467.817C736.645 472.541 736.764 478.947 736.764 485.627C736.764 492.307 736.645 498.714 736.434 503.437C736.222 508.161 735.935 510.815 735.636 510.815H725.364Z" fill="#E6E6E6"/>
<path d="M725.364 463.725C725.104 463.725 724.854 466.033 724.67 470.14C724.486 474.248 724.383 479.818 724.383 485.627C724.383 491.436 724.486 497.007 724.67 501.114C724.854 505.222 725.104 507.529 725.364 507.529H735.636C735.896 507.529 736.146 505.222 736.33 501.114C736.514 497.007 736.617 491.436 736.617 485.627C736.617 479.818 736.514 474.248 736.33 470.14C736.146 466.033 735.896 463.725 735.636 463.725H725.364Z" fill="white"/>
<path d="M726.438 463.725H726.406V507.529H726.438V463.725Z" fill="#E6E6E6"/>
<path d="M728.48 463.725H728.447V507.529H728.48V463.725Z" fill="#E6E6E6"/>
<path d="M730.525 463.725H730.492V507.529H730.525V463.725Z" fill="#E6E6E6"/>
<path d="M732.553 463.725H732.52V507.529H732.553V463.725Z" fill="#E6E6E6"/>
<path d="M734.597 463.725H734.564V507.529H734.597V463.725Z" fill="#E6E6E6"/>
<path d="M726.97 479.057C726.964 479.056 726.958 479.084 726.952 479.137C726.946 479.19 726.941 479.267 726.937 479.366C726.932 479.464 726.929 479.58 726.926 479.709C726.924 479.837 726.923 479.975 726.923 480.114C726.923 480.253 726.924 480.39 726.926 480.519C726.929 480.647 726.932 480.764 726.937 480.862C726.941 480.96 726.946 481.038 726.952 481.091C726.958 481.144 726.964 481.171 726.97 481.171H727.931C727.937 481.171 727.943 481.144 727.949 481.091C727.955 481.038 727.96 480.96 727.964 480.863C727.969 480.765 727.972 480.648 727.975 480.52C727.977 480.392 727.978 480.255 727.978 480.116C727.978 479.977 727.977 479.839 727.975 479.711C727.972 479.583 727.969 479.466 727.964 479.368C727.96 479.269 727.955 479.191 727.949 479.138C727.943 479.085 727.937 479.057 727.931 479.057H726.97Z" fill="#E6E6E6"/>
<path d="M726.97 484.532C726.964 484.532 726.958 484.559 726.952 484.612C726.946 484.665 726.941 484.743 726.937 484.841C726.932 484.939 726.929 485.056 726.926 485.184C726.924 485.313 726.923 485.45 726.923 485.589C726.923 485.728 726.924 485.866 726.926 485.994C726.929 486.122 726.932 486.239 726.937 486.337C726.941 486.435 726.946 486.513 726.952 486.566C726.958 486.619 726.964 486.646 726.97 486.646H727.931C727.937 486.646 727.943 486.619 727.949 486.566C727.955 486.514 727.96 486.436 727.964 486.338C727.969 486.24 727.972 486.124 727.975 485.996C727.977 485.867 727.978 485.73 727.978 485.591C727.978 485.452 727.977 485.315 727.975 485.187C727.972 485.058 727.969 484.942 727.964 484.843C727.96 484.745 727.955 484.667 727.949 484.613C727.943 484.56 727.937 484.532 727.931 484.532H726.97Z" fill="#E6E6E6"/>
<path d="M726.97 490.008C726.964 490.007 726.958 490.035 726.952 490.088C726.946 490.141 726.941 490.218 726.937 490.317C726.932 490.415 726.929 490.531 726.926 490.66C726.924 490.788 726.923 490.926 726.923 491.065C726.923 491.204 726.924 491.341 726.926 491.47C726.929 491.598 726.932 491.715 726.937 491.813C726.941 491.911 726.946 491.989 726.952 492.042C726.958 492.095 726.964 492.122 726.97 492.122H727.931C727.937 492.122 727.943 492.095 727.949 492.042C727.955 491.989 727.96 491.912 727.964 491.814C727.969 491.716 727.972 491.599 727.975 491.471C727.977 491.343 727.978 491.206 727.978 491.067C727.978 490.928 727.977 490.79 727.975 490.662C727.972 490.534 727.969 490.417 727.964 490.319C727.96 490.22 727.955 490.142 727.949 490.089C727.943 490.036 727.937 490.008 727.931 490.008H726.97Z" fill="#E6E6E6"/>
<path d="M728.998 479.057C728.992 479.056 728.986 479.084 728.98 479.137C728.974 479.19 728.969 479.267 728.965 479.366C728.96 479.464 728.957 479.58 728.954 479.709C728.952 479.837 728.951 479.975 728.951 480.114C728.951 480.253 728.952 480.39 728.954 480.519C728.957 480.647 728.96 480.764 728.965 480.862C728.969 480.96 728.974 481.038 728.98 481.091C728.986 481.144 728.992 481.171 728.998 481.171H729.959C729.965 481.171 729.971 481.144 729.977 481.091C729.983 481.038 729.988 480.96 729.992 480.862C729.997 480.764 730 480.647 730.003 480.519C730.005 480.39 730.006 480.253 730.006 480.114C730.006 479.975 730.005 479.837 730.003 479.709C730 479.58 729.997 479.464 729.992 479.366C729.988 479.267 729.983 479.19 729.977 479.137C729.971 479.084 729.965 479.056 729.959 479.057H728.998Z" fill="#6C63FF"/>
<path d="M728.998 484.532C728.992 484.532 728.986 484.559 728.98 484.612C728.974 484.665 728.969 484.743 728.965 484.841C728.96 484.939 728.957 485.056 728.954 485.184C728.952 485.313 728.951 485.45 728.951 485.589C728.951 485.728 728.952 485.866 728.954 485.994C728.957 486.122 728.96 486.239 728.965 486.337C728.969 486.435 728.974 486.513 728.98 486.566C728.986 486.619 728.992 486.646 728.998 486.646H729.959C729.965 486.646 729.971 486.619 729.977 486.566C729.983 486.513 729.988 486.435 729.992 486.337C729.997 486.239 730 486.122 730.003 485.994C730.005 485.866 730.006 485.728 730.006 485.589C730.006 485.45 730.005 485.313 730.003 485.184C730 485.056 729.997 484.939 729.992 484.841C729.988 484.743 729.983 484.665 729.977 484.612C729.971 484.559 729.965 484.532 729.959 484.532H728.998Z" fill="#6C63FF"/>
<path d="M728.998 490.008C728.992 490.007 728.986 490.035 728.98 490.088C728.974 490.141 728.969 490.218 728.965 490.317C728.96 490.415 728.957 490.531 728.954 490.66C728.952 490.788 728.951 490.926 728.951 491.065C728.951 491.204 728.952 491.341 728.954 491.47C728.957 491.598 728.96 491.715 728.965 491.813C728.969 491.911 728.974 491.989 728.98 492.042C728.986 492.095 728.992 492.122 728.998 492.122H729.959C729.965 492.122 729.971 492.095 729.977 492.042C729.983 491.989 729.988 491.911 729.992 491.813C729.997 491.715 730 491.598 730.003 491.47C730.005 491.341 730.006 491.204 730.006 491.065C730.006 490.926 730.005 490.788 730.003 490.66C730 490.531 729.997 490.415 729.992 490.317C729.988 490.218 729.983 490.141 729.977 490.088C729.971 490.035 729.965 490.007 729.959 490.008H728.998Z" fill="#6C63FF"/>
<path d="M731.043 479.057C731.03 479.057 731.018 479.169 731.009 479.367C731 479.565 730.995 479.834 730.995 480.114C730.995 480.394 731 480.662 731.009 480.86C731.018 481.059 731.03 481.17 731.043 481.171H732.003C732.01 481.171 732.016 481.144 732.021 481.091C732.027 481.038 732.032 480.96 732.037 480.862C732.041 480.764 732.045 480.647 732.047 480.519C732.05 480.39 732.051 480.253 732.051 480.114C732.051 479.975 732.05 479.837 732.047 479.709C732.045 479.58 732.041 479.464 732.037 479.366C732.032 479.267 732.027 479.19 732.021 479.137C732.016 479.084 732.01 479.056 732.003 479.057H731.043Z" fill="#E6E6E6"/>
<path d="M731.043 484.532C731.03 484.533 731.018 484.644 731.009 484.842C731 485.041 730.995 485.309 730.995 485.589C730.995 485.869 731 486.138 731.009 486.336C731.018 486.534 731.03 486.646 731.043 486.646H732.003C732.01 486.646 732.016 486.619 732.021 486.566C732.027 486.513 732.032 486.435 732.037 486.337C732.041 486.239 732.045 486.122 732.047 485.994C732.05 485.866 732.051 485.728 732.051 485.589C732.051 485.45 732.05 485.313 732.047 485.184C732.045 485.056 732.041 484.939 732.037 484.841C732.032 484.743 732.027 484.665 732.021 484.612C732.016 484.559 732.01 484.532 732.003 484.532H731.043Z" fill="#E6E6E6"/>
<path d="M731.043 490.008C731.03 490.008 731.018 490.12 731.009 490.318C731 490.516 730.995 490.785 730.995 491.065C730.995 491.345 731 491.613 731.009 491.811C731.018 492.01 731.03 492.121 731.043 492.122H732.003C732.01 492.122 732.016 492.095 732.021 492.042C732.027 491.989 732.032 491.911 732.037 491.813C732.041 491.715 732.045 491.598 732.047 491.47C732.05 491.341 732.051 491.204 732.051 491.065C732.051 490.926 732.05 490.788 732.047 490.66C732.045 490.531 732.041 490.415 732.037 490.317C732.032 490.218 732.027 490.141 732.021 490.088C732.016 490.035 732.01 490.007 732.003 490.008H731.043Z" fill="#E6E6E6"/>
<path d="M733.079 479.057C733.066 479.057 733.054 479.169 733.045 479.367C733.037 479.565 733.032 479.834 733.032 480.114C733.032 480.394 733.037 480.662 733.045 480.86C733.054 481.059 733.066 481.17 733.079 481.171H734.04C734.046 481.171 734.052 481.144 734.058 481.091C734.064 481.038 734.069 480.96 734.073 480.862C734.078 480.764 734.081 480.647 734.083 480.519C734.086 480.39 734.087 480.253 734.087 480.114C734.087 479.975 734.086 479.837 734.083 479.709C734.081 479.58 734.078 479.464 734.073 479.366C734.069 479.267 734.064 479.19 734.058 479.137C734.052 479.084 734.046 479.056 734.04 479.057H733.079Z" fill="#E6E6E6"/>
<path d="M733.079 484.532C733.066 484.533 733.054 484.644 733.045 484.842C733.037 485.041 733.032 485.309 733.032 485.589C733.032 485.869 733.037 486.138 733.045 486.336C733.054 486.534 733.066 486.646 733.079 486.646H734.04C734.046 486.646 734.052 486.619 734.058 486.566C734.064 486.513 734.069 486.435 734.073 486.337C734.078 486.239 734.081 486.122 734.083 485.994C734.086 485.866 734.087 485.728 734.087 485.589C734.087 485.45 734.086 485.313 734.083 485.184C734.081 485.056 734.078 484.939 734.073 484.841C734.069 484.743 734.064 484.665 734.058 484.612C734.052 484.559 734.046 484.532 734.04 484.532H733.079Z" fill="#E6E6E6"/>
<path d="M733.079 490.008C733.066 490.008 733.054 490.12 733.045 490.318C733.037 490.516 733.032 490.785 733.032 491.065C733.032 491.345 733.037 491.613 733.045 491.811C733.054 492.01 733.066 492.121 733.079 492.122H734.04C734.046 492.122 734.052 492.095 734.058 492.042C734.064 491.989 734.069 491.911 734.073 491.813C734.078 491.715 734.081 491.598 734.083 491.47C734.086 491.341 734.087 491.204 734.087 491.065C734.087 490.926 734.086 490.788 734.083 490.66C734.081 490.531 734.078 490.415 734.073 490.317C734.069 490.218 734.064 490.141 734.058 490.088C734.052 490.035 734.046 490.007 734.04 490.008H733.079Z" fill="#E6E6E6"/>
<path d="M735.066 479.057C735.054 479.057 735.042 479.169 735.033 479.367C735.024 479.565 735.019 479.834 735.019 480.114C735.019 480.394 735.024 480.662 735.033 480.86C735.042 481.059 735.054 481.17 735.066 481.171H736.027C736.033 481.171 736.039 481.144 736.045 481.091C736.051 481.038 736.056 480.96 736.06 480.862C736.065 480.764 736.068 480.647 736.071 480.519C736.073 480.39 736.074 480.253 736.074 480.114C736.074 479.975 736.073 479.837 736.071 479.709C736.068 479.58 736.065 479.464 736.06 479.366C736.056 479.267 736.051 479.19 736.045 479.137C736.039 479.084 736.033 479.056 736.027 479.057H735.066Z" fill="#E6E6E6"/>
<path d="M735.066 484.532C735.054 484.533 735.042 484.644 735.033 484.842C735.024 485.041 735.019 485.309 735.019 485.589C735.019 485.869 735.024 486.138 735.033 486.336C735.042 486.534 735.054 486.646 735.066 486.646H736.027C736.033 486.646 736.039 486.619 736.045 486.566C736.051 486.513 736.056 486.435 736.06 486.337C736.065 486.239 736.068 486.122 736.071 485.994C736.073 485.866 736.074 485.728 736.074 485.589C736.074 485.45 736.073 485.313 736.071 485.184C736.068 485.056 736.065 484.939 736.06 484.841C736.056 484.743 736.051 484.665 736.045 484.612C736.039 484.559 736.033 484.532 736.027 484.532H735.066Z" fill="#E6E6E6"/>
<path d="M735.066 490.008C735.054 490.008 735.042 490.12 735.033 490.318C735.024 490.516 735.019 490.785 735.019 491.065C735.019 491.345 735.024 491.613 735.033 491.811C735.042 492.01 735.054 492.121 735.066 492.122H736.027C736.033 492.122 736.039 492.095 736.045 492.042C736.051 491.989 736.056 491.911 736.06 491.813C736.065 491.715 736.068 491.598 736.071 491.47C736.073 491.341 736.074 491.204 736.074 491.065C736.074 490.926 736.073 490.788 736.071 490.66C736.068 490.531 736.065 490.415 736.06 490.317C736.056 490.218 736.051 490.141 736.045 490.088C736.039 490.035 736.033 490.007 736.027 490.008H735.066Z" fill="#E6E6E6"/>
<path d="M724.926 479.057C724.913 479.057 724.901 479.169 724.892 479.367C724.883 479.565 724.878 479.834 724.878 480.114C724.878 480.394 724.883 480.662 724.892 480.86C724.901 481.059 724.913 481.17 724.926 481.171H725.886C725.893 481.171 725.899 481.144 725.904 481.091C725.91 481.038 725.915 480.96 725.92 480.863C725.924 480.765 725.928 480.648 725.93 480.52C725.933 480.392 725.934 480.255 725.934 480.116C725.934 479.977 725.933 479.839 725.93 479.711C725.928 479.583 725.924 479.466 725.92 479.368C725.916 479.269 725.91 479.191 725.905 479.138C725.899 479.085 725.893 479.057 725.887 479.057H724.926Z" fill="#E6E6E6"/>
<path d="M724.926 484.532C724.913 484.533 724.901 484.644 724.892 484.842C724.883 485.041 724.878 485.309 724.878 485.589C724.878 485.869 724.883 486.138 724.892 486.336C724.901 486.534 724.913 486.646 724.926 486.646H725.886C725.893 486.646 725.899 486.619 725.904 486.566C725.91 486.514 725.915 486.436 725.92 486.338C725.924 486.24 725.928 486.124 725.93 485.996C725.933 485.867 725.934 485.73 725.934 485.591C725.934 485.452 725.933 485.315 725.93 485.187C725.928 485.058 725.924 484.942 725.92 484.843C725.916 484.745 725.91 484.667 725.905 484.613C725.899 484.56 725.893 484.532 725.887 484.532H724.926Z" fill="#E6E6E6"/>
<path d="M724.926 490.008C724.913 490.008 724.901 490.12 724.892 490.318C724.883 490.516 724.878 490.785 724.878 491.065C724.878 491.345 724.883 491.613 724.892 491.811C724.901 492.01 724.913 492.121 724.926 492.122H725.886C725.893 492.122 725.899 492.095 725.904 492.042C725.91 491.989 725.915 491.912 725.92 491.814C725.924 491.716 725.928 491.599 725.93 491.471C725.933 491.343 725.934 491.206 725.934 491.067C725.934 490.928 725.933 490.79 725.93 490.662C725.928 490.534 725.924 490.417 725.92 490.319C725.916 490.22 725.91 490.142 725.905 490.089C725.899 490.036 725.893 490.008 725.887 490.008H724.926Z" fill="#E6E6E6"/>
<path d="M729.48 459.592C729.908 459.592 730.255 451.848 730.255 442.296C730.255 432.744 729.908 425 729.48 425C729.052 425 728.705 432.744 728.705 442.296C728.705 451.848 729.052 459.592 729.48 459.592Z" fill="#6C63FF"/>
<path d="M729.48 470.413L729.237 461.046L728.995 451.679H729.48H729.964L729.722 461.046L729.48 470.413Z" fill="#6C63FF"/>
<path d="M729.486 448.394C729.639 448.394 729.764 445.615 729.764 442.188C729.764 438.761 729.639 435.983 729.486 435.983C729.332 435.983 729.208 438.761 729.208 442.188C729.208 445.615 729.332 448.394 729.486 448.394Z" fill="white"/>
<path d="M737.51 489.184C737.507 489.184 737.504 489.17 737.501 489.142C737.498 489.114 737.495 489.073 737.493 489.022L737.358 486.027C737.354 485.923 737.351 485.782 737.351 485.634C737.351 485.487 737.354 485.346 737.358 485.242C737.363 485.138 737.369 485.08 737.376 485.08C737.383 485.08 737.389 485.138 737.394 485.242L737.507 487.78L737.709 481.646C737.713 481.528 737.719 481.449 737.725 481.426C737.732 481.404 737.738 481.441 737.744 481.528C737.749 481.614 737.752 481.745 737.753 481.89C737.754 482.035 737.753 482.183 737.749 482.302L737.53 488.957C737.528 489.022 737.525 489.075 737.522 489.114C737.519 489.153 737.516 489.176 737.512 489.183C737.511 489.184 737.511 489.184 737.51 489.184Z" fill="#6C63FF"/>
<path d="M723.334 489.099C723.329 489.099 723.324 489.067 723.32 489.006C723.316 488.945 723.313 488.858 723.311 488.757C723.309 488.656 723.308 488.544 723.309 488.437C723.31 488.329 723.313 488.23 723.316 488.153L723.581 482.242C723.586 482.138 723.592 482.08 723.599 482.08C723.605 482.08 723.611 482.138 723.616 482.242C723.621 482.346 723.623 482.487 723.623 482.634C723.623 482.781 723.621 482.922 723.616 483.026L723.351 488.937C723.349 488.988 723.346 489.029 723.343 489.057C723.34 489.085 723.337 489.099 723.334 489.099Z" fill="#6C63FF"/>
<path d="M723.599 489.099C723.595 489.099 723.592 489.085 723.589 489.057C723.586 489.029 723.583 488.988 723.581 488.937L723.316 483.026C723.311 482.922 723.309 482.781 723.309 482.634C723.309 482.487 723.311 482.346 723.316 482.242C723.321 482.138 723.327 482.079 723.334 482.079C723.34 482.079 723.347 482.138 723.351 482.242L723.616 488.153C723.62 488.23 723.622 488.329 723.623 488.437C723.624 488.544 723.623 488.656 723.622 488.757C723.62 488.858 723.616 488.945 723.612 489.006C723.608 489.067 723.603 489.099 723.599 489.099Z" fill="#6C63FF"/>
<path d="M732.616 548.037C732.594 547.761 732.574 547.378 732.559 546.915C732.544 546.453 732.534 545.921 732.529 545.359C732.524 544.796 732.524 544.216 732.53 543.66C732.537 543.103 732.548 542.584 732.564 542.137L732.337 506.782L732.719 507.017L732.822 541.696C732.854 542.351 732.874 543.243 732.878 544.203C732.883 545.164 732.871 546.126 732.845 546.907C732.82 547.689 732.783 548.236 732.741 548.444C732.698 548.652 732.654 548.507 732.616 548.037Z" fill="#A0616A"/>
<path d="M732.287 512.55C732.279 512.389 732.272 512.187 732.267 511.959C732.262 511.731 732.259 511.482 732.259 511.229L732.253 502.406C732.243 501.13 732.257 499.823 732.29 498.771C732.324 497.719 732.375 497.008 732.432 496.794C732.489 496.58 732.548 496.88 732.595 497.629C732.642 498.377 732.674 499.513 732.684 500.787L732.805 509.217C732.809 509.458 732.81 509.712 732.809 509.963C732.807 510.214 732.803 510.456 732.798 510.671C732.792 510.887 732.784 511.072 732.774 511.213C732.765 511.354 732.754 511.448 732.743 511.49L732.351 512.935C732.339 512.977 732.328 512.964 732.317 512.897C732.306 512.831 732.296 512.712 732.287 512.55Z" fill="#6C63FF"/>
<path d="M732.406 601.011L732.055 559.762C732.054 559.636 732.051 559.523 732.047 559.442C732.042 559.36 732.037 559.317 732.031 559.32H732.031C732.025 559.317 732.02 559.359 732.015 559.439C732.011 559.52 732.008 559.633 732.007 559.758L731.643 600.925C731.639 601.318 731.629 601.667 731.615 601.908C731.6 602.149 731.582 602.264 731.565 602.233L731.28 601.724C731.27 601.707 731.26 601.646 731.252 601.546C731.243 601.447 731.235 601.309 731.229 601.142C731.223 600.976 731.218 600.783 731.215 600.575C731.212 600.367 731.211 600.148 731.212 599.931L731.452 542.101L732.677 542.814L732.685 542.819L732.805 600.616C732.806 600.838 732.804 601.06 732.801 601.268C732.797 601.476 732.792 601.666 732.785 601.827C732.778 601.988 732.77 602.116 732.761 602.204C732.752 602.291 732.742 602.336 732.732 602.336H732.478C732.461 602.336 732.445 602.203 732.431 601.962C732.418 601.72 732.409 601.384 732.406 601.011Z" fill="#2F2E41"/>
<path d="M732.013 491.272C732.235 491.272 732.415 487.258 732.415 482.306C732.415 477.355 732.235 473.341 732.013 473.341C731.791 473.341 731.612 477.355 731.612 482.306C731.612 487.258 731.791 491.272 732.013 491.272Z" fill="#A0616A"/>
<path d="M731.424 545.321C731.41 545.166 731.399 544.92 731.392 544.616C731.385 544.313 731.382 543.967 731.385 543.629C731.437 535.347 731.403 520.702 731.367 509.875C731.341 502.455 731.565 495.812 731.886 494.422C731.891 494.401 731.896 494.38 731.901 494.36C732 493.957 732.102 494.071 732.198 494.694C732.294 495.317 732.383 496.432 732.457 497.95C732.532 499.471 732.59 501.361 732.627 503.471C732.664 505.581 732.678 507.853 732.669 510.107C732.621 522.176 732.706 540.243 732.723 543.743C732.724 544.003 732.723 544.265 732.719 544.509C732.715 544.754 732.708 544.972 732.699 545.148C732.536 548.469 732.339 549.592 732.148 549.592C731.838 549.592 731.542 546.654 731.424 545.321Z" fill="#6C63FF"/>
<path d="M731.125 548.135C731.149 547.915 731.17 547.581 731.188 547.158C731.205 546.734 731.218 546.231 731.226 545.684C731.233 545.136 731.235 544.558 731.232 543.99C731.229 543.422 731.22 542.878 731.206 542.395L731.602 507.792L731.221 507.107L730.951 541.337C730.917 541.911 730.893 542.75 730.884 543.695C730.875 544.639 730.882 545.624 730.903 546.462C730.925 547.3 730.959 547.933 731 548.242C731.041 548.55 731.086 548.512 731.125 548.135Z" fill="#A0616A"/>
<path d="M731.559 513.876L731.176 511.496C731.165 511.428 731.155 511.309 731.146 511.146C731.137 510.983 731.13 510.78 731.126 510.551C731.121 510.323 731.118 510.074 731.118 509.821C731.118 509.568 731.12 509.318 731.125 509.087L731.286 500.998C731.302 499.754 731.339 498.702 731.39 498.071C731.44 497.44 731.5 497.283 731.556 497.633C731.612 497.983 731.659 498.813 731.687 499.939C731.716 501.066 731.723 502.398 731.707 503.644L731.658 512.401C731.657 512.651 731.653 512.892 731.647 513.107C731.641 513.322 731.633 513.506 731.624 513.646C731.614 513.786 731.604 513.879 731.593 513.919C731.581 513.959 731.57 513.944 731.559 513.876Z" fill="#6C63FF"/>
<path d="M732.154 491.145C732.192 491.161 732.229 491.008 732.265 490.696C732.28 490.562 732.296 490.452 732.312 490.318C732.449 489.136 732.539 485.875 732.543 482.594C732.546 479.313 732.47 476.128 732.357 474.03C732.244 471.931 732.097 470.853 731.951 470.604C731.793 470.336 731.615 471.23 731.527 474.165C731.503 474.947 731.487 475.895 731.501 476.838C731.505 477.123 731.512 477.378 731.522 477.579C731.562 478.361 731.601 477.773 731.641 477.721C731.696 477.649 731.746 478.647 731.764 479.816C731.782 480.984 731.774 482.271 731.759 483.463C731.748 484.181 731.741 484.926 731.739 485.681C731.738 486.06 731.741 486.439 731.748 486.783C731.755 487.126 731.766 487.423 731.78 487.644C731.815 488.11 731.86 487.841 731.895 487.376C731.929 486.911 731.959 486.265 731.996 485.923C732.033 485.581 732.084 485.656 732.105 486.415C732.112 486.691 732.117 486.992 732.119 487.304C732.139 489.283 732.134 489.166 732.154 491.145Z" fill="#2F2E41"/>
<path d="M723.466 495.993C723.374 495.993 723.284 495.383 723.207 494.239C723.131 493.096 723.071 491.471 723.035 489.57C723 487.669 722.991 485.578 723.009 483.56C723.027 481.542 723.071 479.688 723.137 478.233C723.202 476.778 723.285 475.787 723.375 475.386C723.466 474.984 723.559 475.19 723.645 475.978C723.73 476.765 723.802 478.099 723.854 479.809C723.905 481.52 723.932 483.532 723.932 485.589C723.932 488.347 723.883 490.992 723.796 492.942C723.708 494.892 723.59 495.99 723.466 495.993ZM723.466 476.281C723.384 476.281 723.303 476.827 723.234 477.85C723.166 478.872 723.112 480.326 723.081 482.027C723.049 483.728 723.041 485.6 723.057 487.405C723.073 489.211 723.113 490.869 723.171 492.171C723.23 493.473 723.304 494.36 723.385 494.719C723.466 495.078 723.55 494.894 723.626 494.189C723.702 493.485 723.767 492.291 723.813 490.761C723.859 489.23 723.883 487.43 723.883 485.589C723.883 483.121 723.839 480.755 723.761 479.01C723.683 477.265 723.577 476.284 723.466 476.281Z" fill="#E6E6E6"/>
<path d="M737.534 495.932C737.442 495.932 737.352 495.322 737.275 494.179C737.198 493.036 737.138 491.411 737.103 489.51C737.068 487.609 737.059 485.517 737.077 483.499C737.095 481.481 737.139 479.627 737.204 478.172C737.269 476.717 737.353 475.727 737.443 475.325C737.533 474.924 737.627 475.13 737.712 475.917C737.797 476.705 737.87 478.038 737.921 479.749C737.973 481.46 738 483.471 738 485.529C738 488.287 737.951 490.931 737.863 492.882C737.776 494.832 737.657 495.929 737.534 495.932ZM737.534 476.22C737.451 476.22 737.371 476.766 737.302 477.789C737.234 478.812 737.18 480.266 737.149 481.967C737.117 483.668 737.109 485.539 737.125 487.345C737.141 489.15 737.181 490.809 737.239 492.111C737.297 493.413 737.372 494.299 737.453 494.658C737.533 495.017 737.617 494.833 737.693 494.129C737.77 493.424 737.835 492.231 737.881 490.7C737.926 489.169 737.951 487.37 737.951 485.529C737.951 483.061 737.907 480.695 737.829 478.95C737.75 477.205 737.644 476.223 737.534 476.22Z" fill="#E6E6E6"/>
</g>
</g>
<defs>
<clipPath id="clip0_1_163">
<rect width="983.864" height="586.046" fill="white" transform="translate(0 -30)"/>
</clipPath>
<clipPath id="clip1_1_163">
<rect width="15" height="189" fill="white" transform="translate(723 425)"/>
</clipPath>
</defs>
</svg>
